<?xml version="1.0" standalone="no"?>
<!DOCTYPE svg PUBLIC "-//W3C//DTD SVG 20010904//EN"
 "http://www.w3.org/TR/2001/REC-SVG-20010904/DTD/svg10.dtd">
<svg version="1.0" xmlns="http://www.w3.org/2000/svg"
 width="514.000000pt" height="514.000000pt" viewBox="0 0 514.000000 514.000000"
 preserveAspectRatio="xMidYMid meet">
<metadata>
Created by potrace 1.11, written by Peter Selinger 2001-2013
</metadata>
<g transform="translate(0.000000,514.000000) scale(0.100000,-0.100000)"
fill="#000000" stroke="none">
<path d="M2467 5125 c-35 -12 -75 -48 -78 -70 -1 -5 -2 -26 -4 -45 -2 -33 -10
-107 -20 -195 -3 -22 -7 -71 -11 -110 -3 -38 -8 -73 -10 -76 -2 -4 -32 -11
-66 -15 -63 -8 -76 -10 -80 -13 -2 -1 -20 -4 -41 -6 -36 -4 -38 -2 -60 43 -12
26 -25 49 -30 50 -4 2 -5 7 -2 12 3 4 -2 13 -10 20 -8 7 -15 17 -15 22 0 20
-64 147 -71 142 -5 -3 -6 3 -2 12 5 13 3 15 -7 9 -9 -5 -11 -4 -6 3 10 16 -19
67 -52 91 -29 20 -107 27 -118 10 -3 -5 -14 -9 -24 -9 -10 0 -25 -7 -33 -15
-8 -8 -17 -12 -19 -10 -3 3 -25 -2 -51 -11 -54 -18 -93 -54 -100 -92 -5 -23
21 -155 40 -202 3 -8 7 -28 9 -44 2 -16 9 -34 14 -41 5 -7 8 -14 5 -16 -2 -3
4 -37 14 -77 l19 -71 -35 -21 c-19 -11 -36 -20 -39 -20 -3 0 -30 -16 -60 -35
-47 -31 -58 -34 -72 -23 -22 17 -81 73 -164 154 -42 41 -71 63 -79 58 -8 -4
-9 -3 -5 5 10 15 -60 78 -94 85 -14 3 -34 4 -45 2 -11 -3 -23 -5 -26 -5 -3 -1
-15 -9 -27 -18 -11 -10 -35 -29 -51 -42 -17 -13 -28 -28 -24 -34 3 -6 1 -7 -5
-3 -7 4 -30 -11 -55 -36 -31 -32 -43 -53 -45 -78 -3 -35 14 -90 28 -90 4 0 12
-12 18 -26 7 -15 17 -22 24 -18 7 4 8 3 4 -4 -9 -15 43 -93 58 -85 6 3 8 3 4
-2 -11 -12 21 -67 34 -59 7 4 8 3 4 -4 -4 -7 -2 -12 4 -12 6 0 9 -4 6 -8 -3
-5 2 -18 12 -28 9 -10 23 -31 31 -46 8 -16 18 -28 23 -28 5 0 -25 -39 -66 -87
-41 -48 -73 -90 -70 -94 2 -4 -17 4 -43 18 -27 14 -49 25 -50 25 -2 -1 -23 8
-48 19 -25 11 -50 17 -57 13 -6 -4 -8 -3 -4 4 3 6 -9 15 -30 22 -20 7 -48 18
-62 26 -14 7 -29 11 -34 8 -4 -3 -8 -1 -8 3 0 15 -76 42 -111 40 -51 -3 -72
-24 -135 -132 -50 -88 -55 -101 -44 -119 12 -19 12 -20 -4 -7 -16 14 -17 13
-13 -16 7 -46 31 -76 95 -119 31 -21 59 -42 60 -46 2 -5 10 -8 18 -8 8 0 14
-4 14 -8 0 -4 18 -19 40 -32 22 -14 40 -28 40 -32 0 -5 7 -8 15 -8 8 0 15 -4
15 -8 0 -4 12 -15 28 -25 67 -42 66 -36 32 -123 -16 -43 -30 -84 -30 -91 0
-17 -29 -43 -43 -38 -7 3 -54 7 -105 9 -52 3 -96 7 -99 9 -2 3 -18 1 -34 -3
-16 -5 -27 -5 -24 0 3 4 -5 8 -18 8 -12 0 -51 1 -87 2 -36 1 -77 -3 -91 -10
-33 -15 -59 -60 -63 -108 -1 -21 -5 -43 -8 -48 -4 -5 -9 -41 -13 -81 -8 -81 8
-124 54 -142 51 -20 134 -41 141 -36 5 3 10 1 12 -5 1 -5 19 -11 38 -12 19 -2
37 -6 40 -9 5 -5 122 -43 172 -55 27 -6 28 -8 25 -65 -2 -37 1 -59 7 -59 8 0
8 -3 0 -8 -5 -4 -9 -23 -8 -42 2 -40 -10 -60 -37 -60 -11 0 -19 -4 -19 -10 0
-5 -3 -9 -7 -8 -10 3 -154 -32 -168 -41 -11 -6 -10 -6 -78 -22 -26 -6 -45 -15
-42 -20 4 -5 0 -6 -7 -4 -20 8 -93 -21 -90 -35 1 -6 -2 -9 -7 -5 -11 6 -34
-29 -24 -39 3 -3 1 -6 -5 -6 -12 0 -14 -55 -3 -75 3 -5 6 -17 6 -25 5 -100 44
-206 71 -196 8 3 12 2 9 -3 -6 -10 33 -27 50 -22 6 2 55 5 110 7 85 4 140 9
140 14 0 0 42 2 93 4 54 2 92 0 92 -6 0 -5 5 -6 12 -2 7 4 8 3 4 -4 -8 -13 3
-64 13 -58 3 2 7 -10 8 -26 1 -17 6 -35 11 -42 5 -6 12 -23 16 -38 5 -21 1
-30 -16 -43 -95 -67 -133 -98 -130 -107 1 -5 -2 -7 -8 -3 -5 3 -21 -5 -35 -19
-14 -14 -25 -23 -25 -20 0 9 -141 -98 -155 -119 -26 -37 -10 -148 18 -130 6 3
7 1 3 -5 -4 -6 5 -29 19 -51 14 -23 25 -45 25 -51 0 -5 5 -10 10 -10 6 0 10
-7 10 -14 0 -23 67 -69 90 -63 11 3 20 1 20 -3 0 -5 18 -1 40 7 22 9 37 20 33
26 -3 6 -1 7 5 3 11 -7 50 9 176 70 39 19 76 34 83 34 7 0 13 5 13 12 0 6 3 9
6 5 4 -3 20 1 36 9 33 17 58 13 58 -11 0 -18 16 -20 24 -2 3 6 4 3 1 -8 -3
-14 11 -37 45 -74 l48 -54 -23 -35 c-13 -20 -21 -40 -18 -45 3 -6 2 -7 -3 -4
-13 8 -137 -181 -128 -195 4 -6 3 -8 -3 -5 -11 7 -46 -39 -46 -60 0 -7 -3 -10
-7 -8 -11 7 -30 -42 -30 -74 0 -32 24 -84 33 -74 4 3 7 2 7 -3 0 -12 135 -125
170 -142 14 -7 36 -11 50 -8 14 2 29 5 33 5 8 1 119 103 146 135 9 10 24 26
35 35 52 44 94 90 89 95 -4 3 1 6 11 6 9 0 19 7 22 15 13 33 42 37 84 10 22
-14 44 -25 50 -25 5 0 10 -4 10 -9 0 -10 29 -23 42 -18 4 1 14 -8 22 -19 12
-16 13 -29 6 -54 -5 -18 -7 -36 -5 -41 3 -4 1 -10 -4 -13 -4 -3 -12 -25 -16
-48 -4 -24 -9 -47 -10 -53 -2 -5 -10 -37 -18 -70 -39 -147 -44 -207 -23 -240
13 -20 76 -62 96 -63 6 -1 16 -4 99 -32 113 -39 140 -22 218 140 141 290 135
280 159 280 12 0 55 -7 95 -15 40 -9 79 -13 86 -11 8 4 13 -3 14 -17 0 -12 2
-31 5 -42 4 -19 9 -68 19 -165 3 -25 7 -61 9 -80 3 -19 7 -57 10 -85 8 -67 10
-77 21 -95 21 -33 64 -50 127 -51 134 -2 189 1 183 11 -3 5 0 7 8 4 24 -9 69
46 64 78 -2 15 0 25 5 22 4 -3 8 8 8 25 0 16 3 38 7 48 6 16 5 17 -13 3 -18
-14 -18 -14 -2 5 9 12 17 29 16 40 0 11 3 42 7 69 6 42 12 111 18 196 1 22 6
26 37 27 59 3 130 15 126 22 -2 3 10 6 27 5 31 -1 34 -5 132 -202 101 -204
120 -230 175 -238 36 -6 212 54 203 69 -3 6 -1 7 5 3 15 -9 54 12 47 24 -3 6
0 7 7 5 29 -11 46 88 22 126 -4 7 -9 30 -11 53 -2 22 -7 42 -11 46 -4 3 -8 16
-10 30 -2 14 -10 50 -18 80 -17 64 -22 83 -30 128 -3 18 -10 35 -15 38 -5 3
-9 11 -9 17 0 9 2 9 8 0 6 -10 18 -7 50 10 23 12 51 30 62 39 11 10 20 15 20
12 0 -3 16 4 35 16 31 19 36 20 41 6 3 -9 10 -16 14 -16 4 0 47 -38 94 -85 48
-47 91 -83 96 -80 6 3 7 -1 4 -9 -3 -9 -2 -16 4 -16 5 0 24 -16 43 -35 85 -88
135 -93 220 -20 19 16 58 49 86 73 48 41 69 78 64 112 -3 18 -33 83 -41 90 -3
3 -16 22 -29 43 -13 20 -27 34 -33 31 -6 -4 -8 -2 -5 3 4 6 -26 60 -67 120
-81 119 -81 116 -24 174 18 19 46 51 62 71 25 32 32 35 53 27 14 -5 29 -6 35
-3 6 4 8 2 4 -4 -3 -6 4 -13 16 -17 13 -4 56 -22 96 -41 40 -19 76 -34 80 -34
4 0 35 -14 69 -30 135 -66 178 -47 255 110 7 14 18 31 25 38 7 8 11 17 8 22
-3 5 1 10 7 12 17 6 17 100 1 105 -7 3 -13 10 -13 16 -1 18 -108 89 -122 81
-6 -4 -8 -3 -5 3 9 14 -131 115 -146 107 -7 -4 -9 -4 -5 1 8 9 -6 24 -45 49
-27 19 -28 24 -9 75 4 10 1 12 -8 6 -9 -5 -11 -4 -6 4 4 6 11 9 16 6 11 -7 33
62 24 76 -4 8 -3 9 4 5 11 -7 14 -3 16 27 2 22 22 35 52 31 16 -2 76 -6 134
-9 58 -3 144 -8 192 -11 88 -6 136 6 122 28 -4 6 -3 8 3 5 14 -9 40 32 47 74
3 19 8 48 11 64 6 34 17 108 17 115 1 34 -7 53 -33 79 -16 17 -33 30 -37 29
-4 -1 -14 2 -22 5 -8 3 -51 16 -95 28 -44 11 -96 25 -115 31 -19 6 -47 11 -62
12 -14 0 -24 5 -20 10 3 5 -5 7 -16 4 -12 -4 -20 -2 -17 2 3 5 -7 10 -22 12
l-28 3 1 83 c0 51 -4 82 -10 82 -6 0 -4 5 4 10 11 7 11 10 2 10 -9 0 -10 5 -3
19 6 10 8 21 5 23 -2 3 16 11 41 18 24 7 42 16 39 21 -3 5 1 6 9 3 16 -6 125
23 145 38 6 6 12 8 12 5 0 -8 139 32 173 50 49 25 64 91 42 183 -1 3 -5 28 -9
55 -12 76 -32 113 -74 133 -41 20 -50 21 -71 8 -10 -7 -12 -6 -6 4 5 8 4 11
-3 6 -6 -3 -44 -8 -84 -11 -40 -2 -109 -7 -153 -11 -145 -11 -155 -12 -150 -4
3 5 -6 39 -20 77 -14 37 -27 73 -29 78 -1 6 -6 20 -10 32 -6 18 0 29 26 52 18
17 36 31 40 31 4 0 16 6 25 14 10 8 73 55 141 106 67 50 123 97 123 103 10 88
1 136 -23 121 -7 -4 -8 -3 -4 4 8 13 -20 72 -34 72 -6 0 -9 3 -8 8 4 15 -41
87 -63 101 -36 21 -90 15 -165 -20 -38 -18 -71 -36 -74 -39 -3 -3 -13 -6 -22
-8 -34 -5 -108 -43 -103 -52 3 -6 -1 -7 -9 -4 -8 3 -32 -4 -55 -15 -45 -23
-61 -26 -61 -10 0 6 -6 16 -12 24 -7 7 -27 30 -45 51 -17 22 -40 50 -52 63
-12 13 -21 26 -21 28 0 3 14 24 31 49 16 24 27 49 23 56 -4 7 -3 8 4 4 14 -9
65 70 56 86 -4 6 -3 8 3 5 10 -6 115 141 119 167 1 6 5 19 9 29 4 9 3 17 -2
17 -5 0 -9 10 -9 23 1 15 -4 22 -17 21 -13 -2 -15 1 -7 10 7 10 -15 33 -87 90
-92 74 -99 78 -139 73 -44 -4 -109 -51 -97 -70 3 -6 2 -7 -4 -4 -6 4 -61 -43
-122 -103 -150 -145 -136 -135 -166 -116 -14 9 -30 14 -36 11 -5 -4 -8 -1 -7
5 2 7 -25 26 -59 43 -35 18 -63 38 -63 46 0 15 55 251 70 296 5 17 12 48 16
70 3 22 8 44 12 49 3 5 -1 6 -9 1 -11 -7 -12 -6 -3 6 12 15 8 32 -17 67 -16
22 -162 84 -201 86 -10 0 -18 4 -18 8 0 4 -16 8 -36 8 -59 0 -88 -30 -145
-148 -28 -59 -64 -133 -80 -165 -17 -31 -27 -62 -23 -69 4 -6 3 -8 -3 -5 -6 4
-15 -4 -21 -17 -10 -23 -11 -23 -74 -10 -34 8 -83 16 -107 19 -24 2 -45 6 -47
8 -6 5 -12 49 -13 85 -1 24 -5 31 -13 26 -10 -6 -10 -5 -1 8 7 8 11 17 9 19
-2 2 -7 38 -11 79 -4 41 -10 80 -14 85 -4 6 -6 31 -5 58 2 26 -1 45 -5 43 -5
-3 -6 5 -4 17 5 25 -48 86 -76 88 -9 0 -31 2 -49 3 -18 1 -35 -1 -38 -6 -3 -5
-11 -5 -17 1 -15 11 -27 12 -48 0 -9 -4 -19 -5 -23 -2 -11 12 -31 11 -69 -2z
m-847 -239 c0 -2 -8 -10 -17 -17 -16 -13 -17 -12 -4 4 13 16 21 21 21 13z
m868 -31 c-3 -3 -9 2 -12 12 -6 14 -5 15 5 6 7 -7 10 -15 7 -18z m962 -315 c0
-5 -4 -10 -10 -10 -5 0 -10 5 -10 10 0 6 5 10 10 10 6 0 10 -4 10 -10z m-1526
-18 c3 -5 -1 -9 -9 -9 -8 0 -12 4 -9 9 3 4 7 8 9 8 2 0 6 -4 9 -8z m1143 -27
c0 -8 -4 -12 -9 -9 -5 3 -6 10 -3 15 9 13 12 11 12 -6z m-293 -77 c-3 -4 -9
-8 -15 -8 -5 0 -9 4 -9 8 0 5 7 9 15 9 8 0 12 -4 9 -9z m-771 -33 c-3 -9 -8
-14 -10 -11 -3 3 -2 9 2 15 9 16 15 13 8 -4z m324 0 c0 -8 -4 -15 -9 -15 -10
0 -11 14 -1 23 9 10 10 9 10 -8z m-1322 -53 c-3 -3 -11 0 -18 7 -9 10 -8 11 6
5 10 -3 15 -9 12 -12z m655 12 c0 -8 -19 -13 -24 -6 -3 5 1 9 9 9 8 0 15 -2
15 -3z m2150 -4 c0 -5 -5 -10 -11 -10 -5 0 -7 5 -4 10 3 6 8 10 11 10 2 0 4
-4 4 -10z m-2846 -38 c3 -5 -1 -9 -9 -9 -8 0 -12 4 -9 9 3 4 7 8 9 8 2 0 6 -4
9 -8z m1599 -37 c-3 -9 -8 -14 -10 -11 -3 3 -2 9 2 15 9 16 15 13 8 -4z
m-1388 -5 c-3 -5 -12 -10 -18 -10 -7 0 -6 4 3 10 19 12 23 12 15 0z m1952 -35
c0 -8 -4 -15 -9 -15 -10 0 -11 14 -1 23 9 10 10 9 10 -8z m-1043 -11 c3 -8 2
-12 -4 -9 -6 3 -10 10 -10 16 0 14 7 11 14 -7z m851 -114 c3 -6 -1 -7 -9 -4
-18 7 -21 14 -7 14 6 0 13 -4 16 -10z m279 -58 c3 -5 -1 -9 -9 -9 -8 0 -12 4
-9 9 3 4 7 8 9 8 2 0 6 -4 9 -8z m871 -91 c3 -5 2 -12 -3 -15 -5 -3 -9 1 -9 9
0 17 3 19 12 6z m445 -85 c0 -3 -4 -8 -10 -11 -5 -3 -10 -1 -10 4 0 6 5 11 10
11 6 0 10 -2 10 -4z m-2847 -41 c-3 -9 -8 -14 -10 -11 -3 3 -2 9 2 15 9 16 15
13 8 -4z m-1149 -47 c-3 -4 -9 -8 -15 -8 -5 0 -9 4 -9 8 0 5 7 9 15 9 8 0 12
-4 9 -9z m480 0 c-3 -4 -9 -8 -15 -8 -5 0 -9 4 -9 8 0 5 7 9 15 9 8 0 12 -4 9
-9z m3756 8 c0 -2 -7 -7 -16 -10 -8 -3 -12 -2 -9 4 6 10 25 14 25 6z m-3480
-62 c0 -8 -19 -13 -24 -6 -3 5 1 9 9 9 8 0 15 -2 15 -3z m2874 -70 c3 -8 2
-12 -4 -9 -6 3 -10 10 -10 16 0 14 7 11 14 -7z m-3399 -42 c-3 -3 -11 0 -18 7
-9 10 -8 11 6 5 10 -3 15 -9 12 -12z m3645 -33 c0 -5 -4 -9 -8 -9 -5 0 -9 7
-9 15 0 8 4 12 9 9 4 -3 8 -9 8 -15z m-3325 -47 c-3 -3 -11 0 -18 7 -9 10 -8
11 6 5 10 -3 15 -9 12 -12z m3130 -72 c3 -6 -1 -7 -9 -4 -18 7 -21 14 -7 14 6
0 13 -4 16 -10z m90 -79 c3 -5 2 -12 -3 -15 -5 -3 -9 1 -9 9 0 17 3 19 12 6z
m103 -286 c-3 -3 -9 2 -12 12 -6 14 -5 15 5 6 7 -7 10 -15 7 -18z m-3497 -32
c13 -16 12 -17 -3 -4 -10 7 -18 15 -18 17 0 8 8 3 21 -13z m3904 -3 c3 -6 -1
-7 -9 -4 -18 7 -21 14 -7 14 6 0 13 -4 16 -10z m110 -8 c-3 -3 -11 0 -18 7 -9
10 -8 11 6 5 10 -3 15 -9 12 -12z m-4197 -117 c-3 -3 -9 2 -12 12 -6 14 -5 15
5 6 7 -7 10 -15 7 -18z m3593 -8 c-10 -9 -11 -8 -5 6 3 10 9 15 12 12 3 -3 0
-11 -7 -18z m-4026 -107 c3 -6 -1 -7 -9 -4 -18 7 -21 14 -7 14 6 0 13 -4 16
-10z m635 -2 c0 -4 -4 -8 -9 -8 -6 0 -12 4 -15 8 -3 5 1 9 9 9 8 0 15 -4 15
-9z m3555 -26 c-3 -3 -11 0 -18 7 -9 10 -8 11 6 5 10 -3 15 -9 12 -12z m-3995
-12 c0 -5 -4 -10 -10 -10 -5 0 -10 5 -10 10 0 6 5 10 10 10 6 0 10 -4 10 -10z
m3965 -40 c-3 -5 -12 -10 -18 -10 -7 0 -6 4 3 10 19 12 23 12 15 0z m-3591
-326 c3 -8 2 -12 -4 -9 -6 3 -10 10 -10 16 0 14 7 11 14 -7z m3763 1 c0 -8 -4
-12 -9 -9 -5 3 -6 10 -3 15 9 13 12 11 12 -6z m-4252 -75 c3 -6 -1 -7 -9 -4
-18 7 -21 14 -7 14 6 0 13 -4 16 -10z m4400 -80 c3 -6 -1 -7 -9 -4 -18 7 -21
14 -7 14 6 0 13 -4 16 -10z m-3814 -53 c-10 -9 -11 -8 -5 6 3 10 9 15 12 12 3
-3 0 -11 -7 -18z m-747 -25 c3 -5 -1 -9 -9 -9 -8 0 -15 4 -15 9 0 4 4 8 9 8 6
0 12 -4 15 -8z m4036 -121 c0 -6 -4 -12 -8 -15 -5 -3 -9 1 -9 9 0 8 4 15 9 15
4 0 8 -4 8 -9z m-3396 -39 c3 -5 -1 -9 -9 -9 -8 0 -15 4 -15 9 0 4 4 8 9 8 6
0 12 -4 15 -8z m3640 -100 c3 -5 -1 -9 -9 -9 -8 0 -12 4 -9 9 3 4 7 8 9 8 2 0
6 -4 9 -8z m-3479 -62 c3 -6 -1 -7 -9 -4 -18 7 -21 14 -7 14 6 0 13 -4 16 -10z
m3010 -69 c3 -5 2 -12 -3 -15 -5 -3 -9 1 -9 9 0 17 3 19 12 6z m-3138 -216 c0
-8 -4 -12 -9 -9 -4 3 -8 9 -8 15 0 5 4 9 8 9 5 0 9 -7 9 -15z m2884 -32 c13
-16 12 -17 -3 -4 -10 7 -18 15 -18 17 0 8 8 3 21 -13z m-2344 -78 c0 -8 -4
-12 -9 -9 -5 3 -6 10 -3 15 9 13 12 11 12 -6z m3028 -5 c3 -6 -1 -7 -9 -4 -18
7 -21 14 -7 14 6 0 13 -4 16 -10z m-3650 -79 c3 -5 2 -12 -3 -15 -5 -3 -9 1
-9 9 0 17 3 19 12 6z m3965 -1 c0 -5 -4 -10 -10 -10 -5 0 -10 5 -10 10 0 6 5
10 10 10 6 0 10 -4 10 -10z m-846 -126 c3 -8 2 -12 -4 -9 -6 3 -10 10 -10 16
0 14 7 11 14 -7z m-477 -69 c0 -8 -4 -15 -9 -15 -10 0 -11 14 -1 23 9 10 10 9
10 -8z m323 -6 c0 -5 -4 -9 -8 -9 -5 0 -9 7 -9 15 0 8 4 12 9 9 4 -3 8 -9 8
-15z m-1926 -85 c3 -8 2 -12 -4 -9 -6 3 -10 10 -10 16 0 14 7 11 14 -7z m290
-36 c-3 -4 -9 -8 -15 -8 -5 0 -9 4 -9 8 0 5 7 9 15 9 8 0 12 -4 9 -9z m1796
-39 c0 -5 -4 -9 -8 -9 -5 0 -9 7 -9 15 0 8 4 12 9 9 4 -3 8 -9 8 -15z m-1842
-84 c-3 -3 -9 2 -12 12 -6 14 -5 15 5 6 7 -7 10 -15 7 -18z m320 0 c-3 -3 -9
2 -12 12 -6 14 -5 15 5 6 7 -7 10 -15 7 -18z m1242 -33 c0 -5 -7 -9 -15 -9 -8
0 -12 4 -9 9 3 4 9 8 15 8 5 0 9 -4 9 -8z m-115 -122 c-3 -5 -12 -10 -18 -10
-7 0 -6 4 3 10 19 12 23 12 15 0z m-1645 -194 c0 -2 -7 -7 -16 -10 -8 -3 -12
-2 -9 4 6 10 25 14 25 6z m1318 -131 c-3 -3 -9 2 -12 12 -6 14 -5 15 5 6 7 -7
10 -15 7 -18z m-804 -1 c3 -8 2 -12 -4 -9 -6 3 -10 10 -10 16 0 14 7 11 14 -7z
m86 -154 c0 -5 -4 -10 -10 -10 -5 0 -10 5 -10 10 0 6 5 10 10 10 6 0 10 -4 10
-10z m-642 -85 c-3 -3 -9 2 -12 12 -6 14 -5 15 5 6 7 -7 10 -15 7 -18z"/>
</g>
</svg>
